{"title":"Shahid 2013 DVDRip x264 Hindi ESubs - ViZNU [P2PDL]","uid":9411148,"size":531747428,"categoryP":"video","categoryS":"movies","magnet":"?xt=urn:btih:90c85c3189b90d2d468de1076cc9330991d29faa&amp;dn=Shahid+2013+DVDRip+x264+Hindi+ESubs+-+ViZNU+%5BP2PDL%5D&amp;tr=udp%3A%2F%2Ftracker.openbittorrent.com%3A80&amp;tr=udp%3A%2F%2Fopen.demonii.com%3A1337&amp;tr=udp%3A%2F%2Ftracker.coppersurfer.tk%3A6969&amp;tr=udp%3A%2F%2Fexodus.desync.com%3A6969","seeders":9,"leechers":1,"uploader":"ValidusVyto","files":-1,"time":1388298411,"description":"Shahid 2013 DVDRip x264 Hindi ESubs - ViZNU\n\n\nGenre: Biography | Drama  &lt;a href=&quot;\nhttp://www.imdb.com/title/tt2181831/&quot; rel=&quot;nofollow&quot; target=&quot;_NEW&quot;&gt;\nhttp://www.imdb.com/title/tt2181831/&lt;/a&gt;\n\n\nFormat                         : MPEG-4\nFile size                      : 502 MiB\nDuration                       : 2h 10mn\nOverall bit rate               : 537 Kbps\n\nVideo\nFormat                         : AVC\nDuration                       : 2h 10mn\nBit rate                       : 494 Kbps\nWidth                          : 640 pixels\nHeight                         : 336 pixels\nDisplay aspect ratio           : 1.905\nFrame rate mode                : Constant\nFrame rate                     : 23.976 fps\nBit depth                      : 10 bits\nStream size                    : 461 MiB (92%)\nWriting library                : x264 core 140 r2377\n\nAudio\nFormat                         : AAC\nBit rate mode                  : Variable\nBit rate                       : 39.9 Kbps\nChannel count                  : 2 channels\nChannel positions              : Front: L R\nSampling rate                  : 48.0 KHz\nStream size                    : 37.3 MiB (7%)\nLanguage                       : Hindi\n\nSubtitle                       : Yes (English)\n\nSource                         : NTSC DVD5\n &lt;a href=&quot;\nhttp://ultraimg.com/images/8OuQx.png&quot; rel=&quot;nofollow&quot; target=&quot;_NEW&quot;&gt;\nhttp://ultraimg.com/images/8OuQx.png&lt;/a&gt; &lt;a href=&quot;\nhttp://ultraimg.com/images/X8d3f.png&quot; rel=&quot;nofollow&quot; target=&quot;_NEW&quot;&gt;\nhttp://ultraimg.com/images/X8d3f.png&lt;/a&gt; &lt;a href=&quot;\nhttp://ultraimg.com/images/r8CBH.png&quot; rel=&quot;nofollow&quot; target=&quot;_NEW&quot;&gt;\nhttp://ultraimg.com/images/r8CBH.png&lt;/a&gt;\n\n----------------------------------------------------------------------------------------------------\n\n\nEncoded using revolutionary 10bit encoding, which enables us to provide you more crispier \nand sharper images at small sizes, just make sure you follow our instructions without a fault.\nRecommend to you to use latest version of VLC player. Install K-Lite Codec Pack or shark007 codecs\nin case of any kind of problem in playback (For non-VLC Media Player users). Alternatively, install\nCore AVC codecs, the fastest decoder that there is coupled with Community Center Codec Pack and play\non Windows Media Player Classic. Check sample to be sure.\nEnjoy!\n","torrent":{"xt":"urn:btih:90c85c3189b90d2d468de1076cc9330991d29faa","amp;dn":"Shahid+2013+DVDRip+x264+Hindi+ESubs+-+ViZNU+%5BP2PDL%5D","amp;tr":["udp%3A%2F%2Ftracker.openbittorrent.com%3A80","udp%3A%2F%2Fopen.demonii.com%3A1337","udp%3A%2F%2Ftracker.coppersurfer.tk%3A6969","udp%3A%2F%2Fexodus.desync.com%3A6969"],"infoHash":"90c85c3189b90d2d468de1076cc9330991d29faa","infoHashBuffer":{"type":"Buffer","data":[144,200,92,49,137,185,13,45,70,141,225,7,108,201,51,9,145,210,159,170]},"announce":[],"urlList":[]}}